<?xml version="1.0" encoding="UTF-8" standalone="no"?>
<svg
   xmlns:dc="http://purl.org/dc/elements/1.1/"
   xmlns:cc="http://creativecommons.org/ns#"
   xmlns:rdf="http://www.w3.org/1999/02/22-rdf-syntax-ns#"
   xmlns:svg="http://www.w3.org/2000/svg"
   xmlns="http://www.w3.org/2000/svg"
   id="svg33"
   version="1.1"
   viewBox="0 0 361.24445 359.0502"
   height="359.0502mm"
   width="361.24445mm">
  <defs
     id="defs27" />
  <metadata
     id="metadata30">
    <rdf:RDF>
      <cc:Work
         rdf:about="">
        <dc:format>image/svg+xml</dc:format>
        <dc:type
           rdf:resource="http://purl.org/dc/dcmitype/StillImage" />
        <dc:title></dc:title>
      </cc:Work>
    </rdf:RDF>
  </metadata>
  <g
     transform="translate(-65.818256,-50.284429)"
     id="layer1">
    <path
       d="m 427.0627,230.90665 c 0,-99.75497 -80.86725,-180.622221 -180.62222,-180.622221 -99.75498,0 -180.622224,80.867251 -180.622224,180.622221 0,90.15377 66.050934,164.87771 152.400004,178.42797 V 283.11776 h -45.86111 v -52.21111 h 45.86111 v -39.79334 c 0,-45.26844 26.96562,-70.27333 68.22369,-70.27333 19.76155,0 40.43186,3.52778 40.43186,3.52778 v 44.45 h -22.77604 c -22.43772,0 -29.43507,13.92308 -29.43507,28.20705 v 33.88184 h 50.09444 l -8.00805,52.21111 H 274.6627 v 126.21686 c 86.34907,-13.55026 152.4,-88.2742 152.4,-178.42797"
       style="fill:#1877f2;fill-opacity:1;fill-rule:nonzero;stroke:none;stroke-width:0.0352777"
       id="path14" />
  </g>
</svg>
